Coordinates
version=1
nRows=17
nColumns=24
inDegrees=yes

Units are S.I. units (second, meters, Newtons, ...)
Angles are in degrees.

endheader
time	pelvis_tilt	pelvis_list	pelvis_rotation	pelvis_tx	pelvis_ty	pelvis_tz	hip_flexion_r	hip_adduction_r	hip_rotation_r	knee_angle_r	ankle_angle_r	subtalar_angle_r	mtp_angle_r	hip_flexion_l	hip_adduction_l	hip_rotation_l	knee_angle_l	ankle_angle_l	subtalar_angle_l	mtp_angle_l	lumbar_extension	lumbar_bending	lumbar_rotation
      5.76500000	     -1.60395937	     -0.67275057	     -3.29733480	      1.31320651	      1.03595160	     -0.30294423	     -1.09171796	      6.38185562	      7.81692514	    -10.15204522	     16.96189259	     -8.56706589	      0.00000000	     26.67124467	     -5.34401703	    -14.20918721	    -50.08520242	      7.59051539	     -2.43436251	      0.00000000	    -12.54540610	     -0.98934402	      4.74113340
      5.77000000	     -1.67991092	     -0.63227409	     -3.43955321	      1.31909649	      1.03587900	     -0.30284402	     -1.54104096	      6.29244234	      7.94610993	     -9.79328338	     16.90389935	     -8.58061457	      0.00000000	     26.84289213	     -5.18843409	    -14.26094373	    -48.50480284	      7.87230904	     -2.10602775	      0.00000000	    -12.46874594	     -1.06279169	      4.93471850
      5.77500000	     -1.64284960	     -0.57239646	     -3.67656230	      1.32495708	      1.03594854	     -0.30262054	     -2.09775682	      6.17686455	      8.18912535	     -9.45326411	     16.78427033	     -8.70653360	      0.00000000	     26.83183175	     -5.04531187	    -14.42412336	    -46.82509300	      8.08223814	     -1.85597127	      0.00000000	    -12.54411153	     -1.19219322	      5.28342262
      5.78000000	     -1.66060006	     -0.53578390	     -3.85417377	      1.33089495	      1.03583484	     -0.30250803	     -2.59756146	      6.08432312	      8.38996306	     -9.12404503	     16.72187791	     -8.79242799	      0.00000000	     26.86217172	     -4.89431948	    -14.50910462	    -45.10434168	      8.28916193	     -1.60802162	      0.00000000	    -12.54054451	     -1.27301156	      5.53502637
      5.78500000	     -1.77878642	     -0.54162710	     -3.97219950	      1.33681865	      1.03550316	     -0.30249677	     -2.96819196	      6.04432247	      8.44383266	     -8.83326516	     16.67859747	     -8.81466519	      0.00000000	     26.99567539	     -4.76084376	    -14.49030872	    -43.36035782	      8.46414764	     -1.31278772	      0.00000000	    -12.42527638	     -1.28393463	      5.73742872
      5.79000000	     -1.70137924	     -0.49677506	     -4.22260506	      1.34287000	      1.03541172	     -0.30233095	     -3.57628860	      5.92404448	      8.79566221	     -8.50787112	     16.61512023	     -8.95454755	      0.00000000	     26.83235864	     -4.61680673	    -14.66687485	    -41.49525463	      8.57112346	     -1.18930567	      0.00000000	    -12.51977483	     -1.39115309	      6.06420990
      5.79500000	     -1.67191393	     -0.49088821	     -4.37898590	      1.34894103	      1.03516303	     -0.30230002	     -4.12613785	      5.85115162	      9.01053211	     -8.19546388	     16.54692306	     -9.08339841	      0.00000000	     26.71693614	     -4.46416598	    -14.69375806	    -39.60707973	      8.67422497	     -0.99278379	      0.00000000	    -12.56458030	     -1.43116310	      6.29845404
      5.80000000	     -1.66865786	     -0.50230538	     -4.53763319	      1.35504146	      1.03480927	     -0.30229744	     -4.63854610	      5.79351552	      9.21078518	     -7.90894294	     16.50625638	     -9.17455863	      0.00000000	     26.60103894	     -4.32439458	    -14.70312763	    -37.67338906	      8.74509412	     -0.82295993	      0.00000000	    -12.57648055	     -1.44694537	      6.54129450
      5.80500000	     -1.61762724	     -0.52696460	     -4.69631927	      1.36116040	      1.03446687	     -0.30232252	     -5.20174211	      5.74026657	      9.43776721	     -7.63042786	     16.45654789	     -9.26815427	      0.00000000	     26.40445767	     -4.18511431	    -14.68042573	    -35.69150494	      8.76878456	     -0.66604793	      0.00000000	    -12.65201901	     -1.44934837	      6.79208890
      5.81000000	     -1.59475364	     -0.56212296	     -4.83826728	      1.36735550	      1.03400234	     -0.30239127	     -5.73297174	      5.69798631	      9.63149602	     -7.36746893	     16.43605180	     -9.33624724	      0.00000000	     26.21195578	     -4.04645301	    -14.63024290	    -33.67268989	      8.78374054	     -0.53116006	      0.00000000	    -12.68335369	     -1.43115022	      7.01428724
      5.81500000	     -1.66943682	     -0.60597695	     -4.95166936	      1.37363209	      1.03332012	     -0.30249885	     -6.15746762	      5.67273044	      9.78618068	     -7.12545443	     16.46459872	     -9.34682479	      0.00000000	     26.10697180	     -3.91023419	    -14.52198434	    -31.63509678	      8.77668602	     -0.38394137	      0.00000000	    -12.57964105	     -1.39183517	      7.17974734
      5.82000000	     -1.56743417	     -0.65171350	     -5.10140906	      1.37995380	      1.03283679	     -0.30262229	     -6.77623759	      5.62399515	      9.97785879	     -6.87371755	     16.45089091	     -9.41231002	      0.00000000	     25.76840460	     -3.76691710	    -14.46270585	    -29.53323764	      8.74029321	     -0.32385178	      0.00000000	    -12.69760607	     -1.36012534	      7.42044824
      5.82500000	     -1.59105745	     -0.72556520	     -5.20934696	      1.38628357	      1.03211889	     -0.30284185	     -7.25534673	      5.61189829	     10.17454418	     -6.65125694	     16.47410603	     -9.39938651	      0.00000000	     25.56520984	     -3.64072066	    -14.28620777	    -27.44180997	      8.63903469	     -0.22697733	      0.00000000	    -12.67006115	     -1.26922957	      7.59557463
      5.83000000	     -1.47166703	     -0.79558065	     -5.33096343	      1.39273496	      1.03152628	     -0.30298291	     -7.89629828	      5.58661692	     10.32699864	     -6.41474786	     16.47166852	     -9.44466885	      0.00000000	     25.17118722	     -3.50879839	    -14.13707218	    -25.31419387	      8.55400773	     -0.13700730	      0.00000000	    -12.79193576	     -1.22029887	      7.79130556
      5.83500000	     -1.48326822	     -0.88619894	     -5.43888662	      1.39920144	      1.03070329	     -0.30325276	     -8.38860445	      5.58444683	     10.50078409	     -6.21069699	     16.49877035	     -9.42576662	      0.00000000	     24.91441296	     -3.39315921	    -13.90831279	    -23.19848610	      8.40072161	     -0.09824299	      0.00000000	    -12.76615758	     -1.10452769	      7.96591109
      5.84000000	     -1.37785639	     -0.95702916	     -5.52627014	      1.40574318	      1.02999753	     -0.30351557	     -9.01250301	      5.55148206	     10.66468387	     -5.99793719	     16.51653079	     -9.42352138	      0.00000000	     24.51183523	     -3.24510798	    -13.63216729	    -21.07358931	      8.20454706	     -0.00883533	      0.00000000	    -12.87655790	     -1.03302259	      8.11179183
      5.84500000	     -1.45093258	     -1.08708817	     -5.65354546	      1.41225115	      1.02899599	     -0.30381595	     -9.42218207	      5.58783897	     10.87128325	     -5.85044651	     16.57060212	     -9.35955376	      0.00000000	     24.30320025	     -3.18185232	    -13.30511528	    -18.99384101	      7.95665443	     -0.04491924	      0.00000000	    -12.77826266	     -0.85960650	      8.30239113
